<?xml version="1.0" standalone="no"?>
<!DOCTYPE svg PUBLIC "-//W3C//DTD SVG 20010904//EN"
 "http://www.w3.org/TR/2001/REC-SVG-20010904/DTD/svg10.dtd">
<svg version="1.0" xmlns="http://www.w3.org/2000/svg"
 width="256.000000pt" height="256.000000pt" viewBox="0 0 256.000000 256.000000"
 preserveAspectRatio="xMidYMid meet">
<metadata>
Created by potrace 1.11, written by Peter Selinger 2001-2013
</metadata>
<g transform="translate(0.000000,256.000000) scale(0.100000,-0.100000)"
fill="#000000" stroke="none">
<path d="M993 2516 c-83 -27 -158 -100 -188 -185 -20 -58 -14 -165 14 -223 27
-57 399 -434 436 -444 46 -12 75 6 176 109 79 80 99 106 95 123 -7 27 28 60
59 56 29 -4 126 94 156 158 30 62 36 155 14 219 -21 64 -93 145 -154 173 -93
42 -211 33 -292 -23 -25 -17 -26 -17 -90 15 -73 37 -154 45 -226 22z"/>
<path d="M689 1823 c-96 -25 -175 -91 -226 -192 -25 -50 -28 -67 -28 -151 0
-138 20 -177 181 -341 l127 -129 -225 0 c-182 0 -228 -3 -237 -14 -13 -15 -17
-318 -5 -352 18 -50 45 -102 59 -114 8 -7 15 -16 15 -20 0 -4 -69 -8 -152 -7
-164 0 -198 -5 -198 -31 1 -50 -74 -47 1280 -47 1329 0 1280 -1 1280 40 0 35
-17 38 -184 39 -91 0 -166 3 -166 7 0 3 6 12 14 18 7 6 25 38 40 70 25 56 27
70 28 220 1 116 -2 164 -11 175 -11 13 -51 16 -237 18 l-224 3 120 120 c146
145 181 205 188 319 4 78 -5 121 -41 195 -49 99 -170 181 -270 183 -92 2 -191
-61 -219 -139 -8 -22 -20 -35 -35 -38 -13 -3 -34 -7 -47 -10 -26 -5 -58 -47
-61 -79 -2 -30 20 -70 47 -84 12 -7 44 -14 71 -15 37 -3 54 -10 80 -35 36 -35
94 -62 132 -62 14 0 25 -3 25 -7 0 -4 -103 -111 -229 -238 -131 -131 -237
-247 -249 -271 -55 -108 -38 -246 39 -330 l20 -21 -111 0 -110 1 23 25 c71 77
89 207 43 306 -17 38 -58 88 -138 169 -99 100 -116 114 -139 109 -31 -6 -60
26 -52 57 4 13 -18 42 -74 100 -43 45 -79 85 -81 89 -1 3 10 8 24 9 39 3 106
36 137 67 21 22 38 29 78 31 63 4 96 24 107 67 17 63 -24 117 -88 117 -27 0
-34 6 -50 43 -47 106 -157 159 -271 130z"/>
<path d="M319 298 c-24 -9 -26 -54 -1 -66 9 -4 218 -8 464 -8 382 1 450 3 462
16 16 17 5 59 -16 61 -75 5 -894 2 -909 -3z"/>
<path d="M1396 295 c-21 -11 -24 -40 -5 -59 10 -11 261 -16 299 -6 27 7 40 44
21 63 -14 14 -287 16 -315 2z"/>
<path d="M1862 282 c-13 -20 -13 -24 1 -40 14 -15 37 -17 194 -17 98 0 184 4
191 8 14 9 16 36 3 56 -7 11 -47 14 -191 15 -180 1 -183 1 -198 -22z"/>
<path d="M584 95 c-9 -6 -14 -21 -12 -36 l3 -24 164 0 c157 0 164 1 171 21 17
44 1 49 -160 50 -99 1 -156 -3 -166 -11z"/>
<path d="M1014 93 c-8 -8 -14 -20 -14 -27 0 -35 17 -36 491 -36 257 0 474 3
483 6 19 7 21 49 4 61 -7 4 -224 8 -482 9 -388 0 -470 -2 -482 -13z"/>
</g>
</svg>
